<svg xmlns="http://www.w3.org/2000/svg" viewBox="0 0 100 145">
  <defs>
    <!-- Birds -->
    <path d="M19 39.6c-14-7.1 6.5-21.5-6-19.4-.1-.4.2-1.8-.6-1.5.5 1 0 2.7-.4 3.8 1.2.6.1 2-.2 2.8 0 0-.3-.6-.5-.6-.5 1-1.2.6-2 1 .1-.6-.6-1 .1-2-.4 0-.7-.3-.8-.4 1.3-1.1.8-2 2.8-1.1l.5-2.2c-.4-.1-.6-.4-.7-1 0 0-2.6-.7-3.5.8 0 0-2.3-3.8 6.6-3 2.2-2.1 9.1.7 10.3-1.8 0 0-2 3.7-3.7 5-1.7 1.3-5.6 7.9-.9 8.4-3.4-8.3 4.2 3.8 7.5-5.3-.6-3.3 12.4-.8 17.5-5.4 0 0-.5 3.3-2 7.1l-3.4-.5 3.1 1.4a23 23 0 0 1-2.8 5l-3-1.6 2.3 2.3c-1.4 1.7-3.2 3-5.5 3.7l-2.2-4.2 1.1 4.4a11 11 0 0 1-3.5 0c2.4 2.7 4.5 5.9 4.7 9 0 0-1.6-3.7-4.8-4.2l.6 1.8s-3.2-1.8-4.9-1.3c-1.4 3-.4 6.8-.4 6.8 2.3.5 4.4 1.7 4.4 1.7-4.5-.4-8.3-1.1-11.2 1 .2-2.4 5.4-3.5 5.4-3.5.4-3.4-2.5-6-3.9-7Z"
          id="bird"
          fill="#ffffff"/>
  </defs>

  <!-- Shield -->
  <path d="M94.4 2.9S76.6 0 48.2 0 1.9 2.9 1.9 2.9c-4.1 18-6.3 111 46.3 141.8C101 113.7 98.4 20 94.4 3Z"
        fill="rgb(34,43,86)" />

  <!-- Book -->
  <path d="m73.8 76.4-1.5-.8.6 1.6-1.2-.7.3.8c-1.9 1.9-10.5-9.5-23.6 2.7-1.3 1.2-1.4 1.6-3 0-10.5-10.7-22.7-2-22.7-2l-.7-.5.4-1-1 .7.7-1.9-1.7.9.6-1.4-1 .4 7-17.4c9.5-8.4 20.5-.4 20.5-.4s11.8-8.4 20 .3l6.7 17.5-1-.4.7 1.6Z"
        fill="#ffffff"/>

    <!-- FIAT LUX text -->
  <text x="48"
        y="67"
        text-anchor="middle"
        font-family="serif"
        font-size="6"
        letter-spacing="1"
        fill="#9aa0a6">
    FIAT   LUX
  </text>


  <!-- Birds -->
  <use href="#bird"/>
  <use href="#bird" transform="translate(45)"/>
  <use href="#bird" transform="translate(17 67.5) scale(1.2575)"/>
</svg>
